<svg version="1.0" xmlns="http://www.w3.org/2000/svg"
 width="240.000000pt" height="240.000000pt" viewBox="0 0 240.000000 240.000000"
 preserveAspectRatio="xMidYMid meet">
<g transform="translate(0.000000,240.000000) scale(0.100000,-0.100000)"
fill="#000000" stroke="none">
<path d="M1470 1964 c-17 -19 -28 -39 -25 -44 3 -5 171 -146 372 -312 l366
-303 -1092 -3 -1091 -2 0 -50 0 -50 1091 -2 1091 -3 -365 -303 c-202 -166
-369 -307 -372 -312 -3 -5 8 -25 25 -44 l31 -35 449 375 449 375 -32 28 c-18
15 -220 184 -449 374 l-417 346 -31 -35z"/>
</g>
</svg>
