<svg id="" data-name="" xmlns="http://www.w3.org/2000/svg" viewBox="0 0 277.35336 198.85578" fill="#333">
  <title></title>
  <g>
    <path d="M134.109,1.32959c-8.61591,1.24152-17.46009,1.83893-25.74536,4.2818C53.93842,21.65851,20.98273,57.76044,9.726,113.34167c-3.0484,15.05213-3.47406,30.25171,2.88166,44.84247,10.22058,23.46326,28.04058,37.34851,53.40155,40.24463,30.74456,3.51093,58.7196-14.9306,68.75579-44.21173,11.23908-32.79071-6.55474-69.80084-39.25042-81.46747-4.258-1.51935-8.68561-2.56347-13.49573-3.96179,10.81146-27.78253,30.509-42.97888,60.49243-44.636V1.27069C139.47565,1.27069,136.74188.95013,134.109,1.32959Z" transform="translate(-7.57895 0.00001)"/>
    <path d="M284.93231,23.00757V.12646c-3.03558,0-5.76941-.32049-8.40234.0589-8.61585,1.24152-17.46,1.83893-25.7453,4.2818-54.42517,16.04712-87.38092,52.14905-98.63758,107.73035-3.04846,15.05206-3.47406,30.25165,2.8816,44.84241,10.22058,23.46325,28.04058,37.34851,53.40155,40.24463,30.74463,3.51092,58.71966-14.93061,68.7558-44.21174,11.23907-32.79071-6.55475-69.80084-39.25043-81.46746-4.258-1.51935-8.68555-2.56348-13.49573-3.9618C235.25134,39.861,254.949,24.66467,284.93231,23.00757Z" transform="translate(-7.57895 0.00001)"/>
  </g>
</svg>
