<?xml version="1.0" standalone="no"?>
<!DOCTYPE svg PUBLIC "-//W3C//DTD SVG 20010904//EN"
 "http://www.w3.org/TR/2001/REC-SVG-20010904/DTD/svg10.dtd">
<svg version="1.0" xmlns="http://www.w3.org/2000/svg"
 width="914.000000pt" height="623.000000pt" viewBox="0 0 914.000000 623.000000"
 preserveAspectRatio="xMidYMid meet">
<metadata>
Created by potrace 1.16, written by Peter Selinger 2001-2019
</metadata>
<g transform="translate(0.000000,623.000000) scale(0.100000,-0.100000)"
fill="#000000" stroke="none">
<path d="M3485 6192 c-39 -24 -88 -80 -140 -162 -23 -36 -504 -864 -1067
-1840 -564 -976 -1287 -2229 -1608 -2785 -321 -556 -597 -1039 -613 -1075 -21
-45 -31 -86 -35 -135 -4 -65 -2 -73 22 -102 14 -17 48 -39 74 -50 45 -17 202
-18 4431 -21 3089 -1 4395 1 4423 9 50 13 123 80 139 126 6 19 9 63 7 96 -4
61 -14 80 -537 992 -893 1556 -1544 2673 -1600 2745 -48 61 -95 81 -178 78
-128 -6 -108 21 -498 -651 -188 -323 -353 -599 -366 -614 -76 -82 -214 -81
-290 3 -15 16 -181 297 -369 624 -926 1606 -1456 2522 -1497 2585 -64 97 -109
151 -148 175 -41 25 -110 26 -150 2z m161 -801 c63 -29 -5 81 749 -1216 208
-357 397 -688 420 -735 79 -156 80 -206 5 -318 -82 -122 -162 -172 -254 -158
-56 9 -53 6 -431 325 -165 139 -313 260 -330 269 -38 19 -130 21 -174 2 -19
-7 -140 -103 -270 -213 -130 -110 -254 -208 -276 -218 -53 -25 -100 -24 -156
4 -52 24 -412 342 -449 395 -34 48 -39 135 -12 188 53 103 926 1612 945 1632
56 61 154 79 233 43z m3247 -1835 c18 -7 46 -27 62 -43 41 -41 468 -776 659
-1134 62 -116 67 -149 37 -214 -44 -96 -159 -141 -256 -101 -19 8 -106 73
-192 144 -87 71 -174 137 -193 147 -37 19 -115 25 -162 12 -15 -4 -84 -53
-154 -108 -164 -131 -186 -143 -248 -143 -72 0 -115 26 -238 146 -121 117
-139 152 -119 235 11 44 545 968 584 1010 50 56 151 78 220 49z"/>
</g>
</svg>
